<svg xmlns="http://www.w3.org/2000/svg" xmlns:xlink="http://www.w3.org/1999/xlink" width="212.431" height="25.342" viewBox="0 0 212.431 25.342"><defs><style>.a{fill:url(#a);}.b{fill:#494ca3;}.c{fill:#ffc000;}.d{fill:#f1f1f1;}.e{fill:rgba(255,255,255,0.73);}.f{fill:#3284ae;}.g{fill:#3ca9c7;}.h{fill:#5870be;}.i{fill:#ffaf38;}.j{fill:#e63737;}.k{fill:#fff;font-size:6px;font-family:ArialMT, Arial;letter-spacing:-0.075em;}.l{fill:#353a40;}.m{fill:#ecd345;}</style><linearGradient id="a" x1="0.5" y1="1" x2="0.5" gradientUnits="objectBoundingBox"><stop offset="0" stop-color="#e59703"/><stop offset="0.231" stop-color="#e59703"/><stop offset="0.234" stop-color="#fff"/><stop offset="0.761" stop-color="#fff"/><stop offset="0.766" stop-color="#5457bb"/><stop offset="1" stop-color="#5457bb"/></linearGradient></defs><g transform="translate(-1332.627 -5149.874)"><path class="a" d="M1508.395,4889.874h35a1.7,1.7,0,0,1,1.667,1.734v21.674a1.7,1.7,0,0,1-1.667,1.734h-35a1.7,1.7,0,0,1-1.667-1.734v-21.674A1.7,1.7,0,0,1,1508.395,4889.874Z" transform="translate(0 260)"/><path class="b" d="M1536.7,4907.1l-.252-1.295h-2.734l-.449,1.295h-2.242l3.207-8.065a1,1,0,0,1,.993-.649h1.729l1.722,8.715Zm-1.236-6.344-1.13,3.261h1.766Zm-7.287.114c0,.952,3,1.156,3,3.345,0,2.108-2.215,2.883-3.682,2.883a5.931,5.931,0,0,1-2.428-.476l.32-1.89c.88.72,3.549.925,3.549-.218s-2.975-1.17-2.975-3.346c0-2.312,2.534-2.788,3.6-2.788a6.106,6.106,0,0,1,1.934.367l-.307,1.809C1530.27,4900.044,1528.175,4899.922,1528.175,4900.874Zm-6.584,6.23,1.344-8.715h2.151l-1.344,8.715Zm-5.157,0-1.866-7.562a8.135,8.135,0,0,1,.941.686,6.825,6.825,0,0,1,1.981,2.865h0l.243,1.291,2.051-5.994h2.315l-3.422,8.715Zm-3.794-8.476-.1-.03Zm-.22-.065-.048-.013Zm.529.17-.128-.045Zm1.491.725q-.1-.062-.2-.119C1514.306,4899.379,1514.372,4899.417,1514.44,4899.459Zm-.514-.29c-.058-.03-.118-.062-.175-.09C1513.808,4899.107,1513.867,4899.139,1513.926,4899.169Zm-.535-.257-.118-.051Z" transform="translate(0 260)"/><path class="c" d="M1517.489,4903.093l-.724-3.918a.939.939,0,0,0-1.02-.785h-3.39l-.04.147a8.146,8.146,0,0,1,3.192,1.69A6.825,6.825,0,0,1,1517.489,4903.093Z" transform="translate(0 260)"/><g transform="translate(-13 260)"><path class="d" d="M1463.342,4890.035h34.735a1.7,1.7,0,0,1,1.654,1.734v21.673a1.7,1.7,0,0,1-1.654,1.734h-34.735a1.7,1.7,0,0,1-1.654-1.734V4891.77A1.7,1.7,0,0,1,1463.342,4890.035Z"/><path class="e" d="M1462.1,4914.585h0a1.78,1.78,0,0,1-.409-1.141V4891.77a1.7,1.7,0,0,1,1.654-1.735h34.734a1.607,1.607,0,0,1,1.126.464l-37.1,24.086Z"/><path class="f" d="M1476.336,4908l1.3-2.35-.724-5.644h1.771l.286,3.34,1.733-3.34h1.828l-4.209,7.994Zm-5.553-4.216c.273-1.374,1.6-1.81,3.562-1.81.117-.611-.272-.764-.934-.741a4.868,4.868,0,0,0-1.694.393l.155-1.373a7.943,7.943,0,0,1,1.985-.349c1.226-.022,2.589.369,2.278,1.962l-.759,3.75h-1.771l.116-.568a2.223,2.223,0,0,1-1.582.676C1471.3,4905.72,1470.553,4905.174,1470.784,4903.78Zm1.811-.087a.5.5,0,0,0,.467.785.91.91,0,0,0,.935-.742,4.2,4.2,0,0,1,.1-.5h-.448A1.2,1.2,0,0,0,1472.594,4903.693Zm-7.911,1.919,1.464-7.172h3.307a1.844,1.844,0,0,1,1.761,2.441,2.75,2.75,0,0,1-2.732,2.355H1467.1l-.475,2.376Zm2.693-3.75h.91a1.232,1.232,0,0,0,1.109-.981.719.719,0,0,0-.653-.98h-.95Z"/><path class="g" d="M1488,4903.78c.276-1.374,1.617-1.809,3.606-1.809.138-.612-.256-.763-.926-.741a5.225,5.225,0,0,0-1.734.392l.158-1.373a8.513,8.513,0,0,1,2.029-.348c1.241-.022,2.6.369,2.285,1.961l-.768,3.749h-1.773l.118-.566a2.311,2.311,0,0,1-1.618.676C1488.519,4905.72,1487.763,4905.175,1488,4903.78Zm1.833-.087a.509.509,0,0,0,.493.785.9.9,0,0,0,.926-.74c.039-.175.059-.328.1-.5h-.433A1.24,1.24,0,0,0,1489.83,4903.692Zm3.636,1.918,1.466-7.194h1.82l-1.485,7.194Zm-11.569,0,1.462-7.171h3.3a1.849,1.849,0,0,1,1.757,2.44,2.749,2.749,0,0,1-2.745,2.355h-1.363l-.494,2.375Zm2.687-3.749h.888a1.252,1.252,0,0,0,1.127-.981.73.73,0,0,0-.671-.98h-.948Z"/></g><path class="h" d="M1418.159,4889.874h34.973a1.7,1.7,0,0,1,1.665,1.734v21.674a1.7,1.7,0,0,1-1.665,1.734h-34.973a1.7,1.7,0,0,1-1.665-1.734v-21.674A1.7,1.7,0,0,1,1418.159,4889.874Z" transform="translate(-26 260)"/><path class="i" d="M1433.249,4902.441a8.979,8.979,0,1,1,8.98,8.981,8.98,8.98,0,0,1-8.98-8.981Z" transform="translate(-26 260)"/><path class="j" d="M1428.47,4911.42a8.98,8.98,0,1,1,7.191-14.36h-1.2v.6h1.613c.121.191.235.389.341.589h-2.554v.6h2.843c.088.2.167.4.237.6h-3.68v.6h3.868a9.033,9.033,0,0,1-.192,5.389h-3.676v.6h3.439c-.09.207-.187.4-.285.591h-2.554v.6h2.206c-.133.21-.272.411-.413.6h-1.193v.6h.7A8.993,8.993,0,0,1,1428.47,4911.42Z" transform="translate(-26 260)"/><text class="k" transform="translate(1395.322 5164.44)"><tspan x="0" y="0">MasterCard</tspan></text><g transform="translate(-38 260)"><path class="l" d="M1372.292,4890.072h34.982a1.7,1.7,0,0,1,1.666,1.734v21.676a1.7,1.7,0,0,1-1.666,1.733h-34.982a1.7,1.7,0,0,1-1.666-1.733v-21.676A1.7,1.7,0,0,1,1372.292,4890.072Z"/><path class="m" d="M1393.315,4906.636a1.47,1.47,0,0,1-.624-.606,2.042,2.042,0,0,1-.24-1.038,1.863,1.863,0,0,1,.474-1.356,1.765,1.765,0,0,1,1.321-.484,1.791,1.791,0,0,1,1.336.477,1.821,1.821,0,0,1,.469,1.335,2.232,2.232,0,0,1-.2,1.022,1.49,1.49,0,0,1-.592.621,1.924,1.924,0,0,1-.967.222A2.175,2.175,0,0,1,1393.315,4906.636Zm.406-2.417a1.631,1.631,0,0,0,0,1.552.726.726,0,0,0,1.068,0,1.332,1.332,0,0,0,.19-.826,1.114,1.114,0,0,0-.2-.734.669.669,0,0,0-.536-.231A.65.65,0,0,0,1393.721,4904.219Zm-9.912,2.574a1.409,1.409,0,0,1-.5-.146,1.232,1.232,0,0,1-.368-.307,1.141,1.141,0,0,1-.229-.409,2.169,2.169,0,0,1-.1-.6v-2.118h1.071v2.168a.625.625,0,0,0,.159.454.669.669,0,0,0,.872,0,.63.63,0,0,0,.158-.457v-2.168h1.071v2.118a1.821,1.821,0,0,1-.1.6,1.278,1.278,0,0,1-.3.489,1.2,1.2,0,0,1-.431.3,2.133,2.133,0,0,1-.751.118A4.773,4.773,0,0,1,1383.81,4906.792Zm15.139-.024-1.3-1.952v1.952h-1.01v-3.555h1l1.309,1.966v-1.966h1.012v3.555Zm-9.978,0-1.3-1.952v1.952h-1.01v-3.555h1l1.308,1.966v-1.966h1.012v3.555Zm1.77-.009v-3.549h1.08v3.549Zm-8.205-4.981a1.387,1.387,0,0,1-.387-.888l1.022-.065a.812.812,0,0,0,.134.388.564.564,0,0,0,.474.217.515.515,0,0,0,.355-.111.322.322,0,0,0,.006-.5,1.366,1.366,0,0,0-.55-.206,2.311,2.311,0,0,1-1.007-.432.875.875,0,0,1-.3-.686.948.948,0,0,1,.155-.517,1.031,1.031,0,0,1,.467-.383,2.132,2.132,0,0,1,.855-.139,1.708,1.708,0,0,1,1.016.254,1.1,1.1,0,0,1,.416.805l-1.012.061a.56.56,0,0,0-.17-.349.536.536,0,0,0-.357-.109.425.425,0,0,0-.282.081.253.253,0,0,0-.095.2.2.2,0,0,0,.079.154.874.874,0,0,0,.361.13,4.465,4.465,0,0,1,1.009.314,1.069,1.069,0,0,1,.443.395,1.014,1.014,0,0,1,.138.525,1.147,1.147,0,0,1-.185.631,1.171,1.171,0,0,1-.517.438,2.064,2.064,0,0,1-.836.149A1.7,1.7,0,0,1,1382.535,4901.778Zm16.414.29-1.3-1.953v1.953h-1.01v-3.555h1l1.309,1.967v-1.967h1.012v3.555Zm-3.875,0-.574-1.087a.849.849,0,0,0-.195-.273.445.445,0,0,0-.264-.083h-.095v1.443h-1.079v-3.555h1.789a2.512,2.512,0,0,1,.761.087.814.814,0,0,1,.425.323,1,1,0,0,1,.161.576,1.017,1.017,0,0,1-.123.511.98.98,0,0,1-.34.347,1.292,1.292,0,0,1-.377.142,1.051,1.051,0,0,1,.28.13,1.069,1.069,0,0,1,.171.188,1.429,1.429,0,0,1,.151.22l.52,1.031Zm-1.127-2.116h.453a1.511,1.511,0,0,0,.284-.048.289.289,0,0,0,.174-.111.335.335,0,0,0,.068-.207.331.331,0,0,0-.107-.265.638.638,0,0,0-.4-.091h-.472Zm-4.6,2.116v-3.555h2.878v.759h-1.8v.565h1.672v.726h-1.672v.7h1.855v.805Zm-2.652,0v-2.677H1385.6v-.878h3.265v.878h-1.1v2.677Zm-7.865,0v-3.555h2.878v.759h-1.8v.565h1.671v.726H1379.9v.7h1.853v.805Zm-2.167,0-.609-2.239-.607,2.239h-1.053l-.773-3.555h1.02l.367,1.99.538-1.99h1.016l.539,1.988.367-1.988h1.015l-.766,3.555Z"/><path class="m" d="M1404.75,4906.831v-8.38h1.2v8.38Zm-2.99,0v-8.38h1.2v8.38Z"/></g></g></svg>