<svg xmlns="http://www.w3.org/2000/svg" width="113.152" height="14" viewBox="0 0 113.152 14"><defs><style>.a{fill:#22262a;}</style></defs><g transform="translate(28.444)"><path class="a" d="M20.545,6.691a2.5,2.5,0,0,0-1.76-1.772C17.232,4.5,11.006,4.5,11.006,4.5s-6.226,0-7.779.419a2.5,2.5,0,0,0-1.76,1.772,26.245,26.245,0,0,0-.416,4.824,26.245,26.245,0,0,0,.416,4.824,2.465,2.465,0,0,0,1.76,1.743c1.553.419,7.779.419,7.779.419s6.226,0,7.779-.419a2.465,2.465,0,0,0,1.76-1.743,26.245,26.245,0,0,0,.416-4.824,26.245,26.245,0,0,0-.416-4.824ZM8.969,14.475V8.554l5.2,2.961-5.2,2.96Z" transform="translate(63.746 -4.5)"/><path class="a" d="M15.466,6.87c.011.153.011.306.011.459A9.983,9.983,0,0,1,5.425,17.381,9.983,9.983,0,0,1,0,15.795a7.308,7.308,0,0,0,.853.044,7.075,7.075,0,0,0,4.386-1.509,3.539,3.539,0,0,1-3.3-2.45,4.455,4.455,0,0,0,.667.055,3.736,3.736,0,0,0,.93-.12A3.533,3.533,0,0,1,.7,8.346V8.3a3.558,3.558,0,0,0,1.6.448A3.538,3.538,0,0,1,1.2,4.026a10.042,10.042,0,0,0,7.284,3.7A3.988,3.988,0,0,1,8.4,6.914,3.536,3.536,0,0,1,14.514,4.5a6.955,6.955,0,0,0,2.242-.853A3.523,3.523,0,0,1,15.2,5.59a7.082,7.082,0,0,0,2.034-.547A7.594,7.594,0,0,1,15.466,6.87Z" transform="translate(31.559 -3.381)"/><path class="a" d="M12.5,2.25H1.5A1.5,1.5,0,0,0,0,3.75v11a1.5,1.5,0,0,0,1.5,1.5H5.789V11.49H3.82V9.25H5.789V7.543A2.734,2.734,0,0,1,8.716,4.528a11.927,11.927,0,0,1,1.735.151V6.585H9.474A1.12,1.12,0,0,0,8.211,7.8V9.25H10.36l-.344,2.24H8.211v4.76H12.5a1.5,1.5,0,0,0,1.5-1.5v-11A1.5,1.5,0,0,0,12.5,2.25Z" transform="translate(1.559 -2.25)"/><path class="a" d="M7,5.648a3.589,3.589,0,1,0,3.589,3.589A3.584,3.584,0,0,0,7,5.648Zm0,5.923A2.334,2.334,0,1,1,9.331,9.238,2.338,2.338,0,0,1,7,11.571ZM11.571,5.5a.837.837,0,1,1-.837-.837A.835.835,0,0,1,11.571,5.5Zm2.377.85a4.143,4.143,0,0,0-1.131-2.933A4.17,4.17,0,0,0,9.884,2.287c-1.156-.066-4.62-.066-5.776,0A4.164,4.164,0,0,0,1.175,3.415,4.157,4.157,0,0,0,.044,6.348c-.066,1.156-.066,4.62,0,5.776a4.143,4.143,0,0,0,1.131,2.933,4.176,4.176,0,0,0,2.933,1.131c1.156.066,4.62.066,5.776,0a4.143,4.143,0,0,0,2.933-1.131,4.17,4.17,0,0,0,1.131-2.933c.066-1.156.066-4.617,0-5.773Zm-1.493,7.013A2.363,2.363,0,0,1,11.125,14.7,15.429,15.429,0,0,1,7,14.976,15.55,15.55,0,0,1,2.871,14.7,2.363,2.363,0,0,1,1.54,13.364a15.429,15.429,0,0,1-.281-4.127A15.549,15.549,0,0,1,1.54,5.111,2.363,2.363,0,0,1,2.871,3.78,15.429,15.429,0,0,1,7,3.5a15.549,15.549,0,0,1,4.127.281,2.363,2.363,0,0,1,1.331,1.331,15.429,15.429,0,0,1,.281,4.127A15.42,15.42,0,0,1,12.455,13.364Z" transform="translate(-28.439 -2.238)"/></g></svg>